<svg width="1147" height="1146" viewBox="0 0 1147 1146" fill="none" xmlns="http://www.w3.org/2000/svg">
<path d="M577.007 6.84082C571.149 6.84082 565.346 7.99302 559.932 10.228L189.035 163.901C183.626 166.138 178.712 169.419 174.572 173.557C170.432 177.694 167.148 182.607 164.908 188.014L11.2351 558.939C6.71478 569.859 6.71478 582.127 11.2351 593.047L164.908 963.958C167.144 969.368 170.427 974.282 174.567 978.42C178.707 982.558 183.624 985.838 189.035 988.071L559.946 1141.74C565.349 1144 571.146 1145.16 577 1145.16C582.854 1145.16 588.651 1144 594.054 1141.74L964.979 988.071C970.385 985.833 975.298 982.551 979.435 978.414C983.572 974.277 986.854 969.364 989.092 963.958L1142.76 593.033C1147.29 582.113 1147.29 569.845 1142.76 558.925L989.092 188.014C984.56 177.099 975.883 168.427 964.965 163.901L594.054 10.228C588.647 7.9993 582.856 6.84868 577.007 6.84082Z" fill="white"/>
<path fill-rule="evenodd" clip-rule="evenodd" d="M544.836 706.101H740.908V797.224H413.092V714.427L542.093 571.614L413.71 437.819V354.775H740.908V445.874H548.999L668.006 570.49L544.836 706.101Z" fill="black"/>
<path d="M577.006 161.669L870.033 283.024L991.399 576.062L870.033 869.101L576.994 990.48L283.968 869.088L162.589 576.05L283.968 283.024L577.006 161.669ZM577.006 69.4834C571.793 69.4834 566.629 70.5088 561.811 72.4978L231.735 209.257C226.921 211.248 222.548 214.168 218.864 217.85C215.179 221.532 212.257 225.904 210.263 230.716L73.5037 560.817C69.4809 570.535 69.4809 581.453 73.5037 591.171L210.263 921.26C212.253 926.074 215.175 930.448 218.859 934.13C222.544 937.812 226.919 940.731 231.735 942.719L561.823 1079.48C566.632 1081.48 571.79 1082.52 577 1082.52C582.21 1082.52 587.369 1081.48 592.177 1079.48L922.278 942.719C927.089 940.727 931.461 937.807 935.143 934.125C938.825 930.443 941.745 926.071 943.737 921.26L1080.5 591.159C1084.52 581.441 1084.52 570.523 1080.5 560.805L943.737 230.716C939.703 221.003 931.982 213.285 922.266 209.257L592.177 72.4978C587.365 70.5144 582.211 69.4904 577.006 69.4834Z" fill="black"/>
</svg>
