<?xml version="1.0" encoding="UTF-8"?>
<!DOCTYPE svg PUBLIC "-//W3C//DTD SVG 1.1//EN" "http://www.w3.org/Graphics/SVG/1.1/DTD/svg11.dtd">
<svg xmlns="http://www.w3.org/2000/svg" version="1.1" width="768px" height="768px" style="shape-rendering:geometricPrecision; text-rendering:geometricPrecision; image-rendering:optimizeQuality; fill-rule:evenodd; clip-rule:evenodd" xmlns:xlink="http://www.w3.org/1999/xlink">
<g><path style="opacity:0.985" fill="#101010" d="M 416.5,736.5 C 416.5,725.833 416.5,715.167 416.5,704.5C 427.014,704.828 437.347,704.494 447.5,703.5C 448.494,693.347 448.828,683.014 448.5,672.5C 459.014,672.828 469.347,672.494 479.5,671.5C 480.494,661.347 480.828,651.014 480.5,640.5C 491.014,640.828 501.347,640.494 511.5,639.5C 512.494,629.347 512.828,619.014 512.5,608.5C 523.014,608.828 533.347,608.494 543.5,607.5C 544.494,597.347 544.828,587.014 544.5,576.5C 555.014,576.828 565.347,576.494 575.5,575.5C 576.497,554.673 576.831,533.673 576.5,512.5C 587.014,512.828 597.347,512.494 607.5,511.5C 607.5,490.167 607.5,468.833 607.5,447.5C 565.337,446.501 523.003,446.168 480.5,446.5C 480.5,436.5 480.5,426.5 480.5,416.5C 491.014,416.828 501.347,416.494 511.5,415.5C 511.5,383.5 511.5,351.5 511.5,319.5C 501.347,318.506 491.014,318.172 480.5,318.5C 480.828,307.986 480.494,297.653 479.5,287.5C 469.347,286.506 459.014,286.172 448.5,286.5C 448.828,275.986 448.494,265.653 447.5,255.5C 436.833,255.5 426.167,255.5 415.5,255.5C 414.502,286.996 414.168,318.662 414.5,350.5C 403.986,350.172 393.653,350.506 383.5,351.5C 382.506,361.653 382.172,371.986 382.5,382.5C 372.5,382.5 362.5,382.5 352.5,382.5C 352.828,371.986 352.494,361.653 351.5,351.5C 341.347,350.506 331.014,350.172 320.5,350.5C 320.832,318.662 320.498,286.996 319.5,255.5C 308.833,255.5 298.167,255.5 287.5,255.5C 286.506,265.653 286.172,275.986 286.5,286.5C 275.986,286.172 265.653,286.506 255.5,287.5C 254.506,297.653 254.172,307.986 254.5,318.5C 243.986,318.172 233.653,318.506 223.5,319.5C 223.5,351.5 223.5,383.5 223.5,415.5C 233.653,416.494 243.986,416.828 254.5,416.5C 254.5,426.5 254.5,436.5 254.5,446.5C 211.997,446.168 169.663,446.501 127.5,447.5C 127.5,468.833 127.5,490.167 127.5,511.5C 137.653,512.494 147.986,512.828 158.5,512.5C 158.169,533.673 158.503,554.673 159.5,575.5C 169.653,576.494 179.986,576.828 190.5,576.5C 190.172,587.014 190.506,597.347 191.5,607.5C 201.653,608.494 211.986,608.828 222.5,608.5C 222.172,619.014 222.506,629.347 223.5,639.5C 233.653,640.494 243.986,640.828 254.5,640.5C 254.172,651.014 254.506,661.347 255.5,671.5C 265.653,672.494 275.986,672.828 286.5,672.5C 286.5,683.167 286.5,693.833 286.5,704.5C 265.167,704.5 243.833,704.5 222.5,704.5C 222.5,693.833 222.5,683.167 222.5,672.5C 201.167,672.5 179.833,672.5 158.5,672.5C 158.5,661.833 158.5,651.167 158.5,640.5C 147.833,640.5 137.167,640.5 126.5,640.5C 126.5,629.833 126.5,619.167 126.5,608.5C 115.833,608.5 105.167,608.5 94.5,608.5C 94.5,597.833 94.5,587.167 94.5,576.5C 83.8333,576.5 73.1667,576.5 62.5,576.5C 62.5,555.167 62.5,533.833 62.5,512.5C 51.8333,512.5 41.1667,512.5 30.5,512.5C 30.5,469.167 30.5,425.833 30.5,382.5C 41.1667,382.5 51.8333,382.5 62.5,382.5C 62.5,361.167 62.5,339.833 62.5,318.5C 73.1667,318.5 83.8333,318.5 94.5,318.5C 94.5,265.167 94.5,211.833 94.5,158.5C 105.167,158.5 115.833,158.5 126.5,158.5C 126.5,137.167 126.5,115.833 126.5,94.5C 137.167,94.5 147.833,94.5 158.5,94.5C 158.5,83.8333 158.5,73.1667 158.5,62.5C 169.167,62.5 179.833,62.5 190.5,62.5C 190.5,51.8333 190.5,41.1667 190.5,30.5C 212.5,30.5 234.5,30.5 256.5,30.5C 256.5,51.8333 256.5,73.1667 256.5,94.5C 267.167,94.5 277.833,94.5 288.5,94.5C 288.5,126.5 288.5,158.5 288.5,190.5C 341.167,190.5 393.833,190.5 446.5,190.5C 446.5,158.5 446.5,126.5 446.5,94.5C 457.167,94.5 467.833,94.5 478.5,94.5C 478.5,73.1667 478.5,51.8333 478.5,30.5C 500.5,30.5 522.5,30.5 544.5,30.5C 544.5,41.1667 544.5,51.8333 544.5,62.5C 555.167,62.5 565.833,62.5 576.5,62.5C 576.5,73.1667 576.5,83.8333 576.5,94.5C 587.167,94.5 597.833,94.5 608.5,94.5C 608.5,115.833 608.5,137.167 608.5,158.5C 619.167,158.5 629.833,158.5 640.5,158.5C 640.5,211.833 640.5,265.167 640.5,318.5C 651.167,318.5 661.833,318.5 672.5,318.5C 672.5,339.833 672.5,361.167 672.5,382.5C 683.167,382.5 693.833,382.5 704.5,382.5C 704.5,425.833 704.5,469.167 704.5,512.5C 693.833,512.5 683.167,512.5 672.5,512.5C 672.5,533.833 672.5,555.167 672.5,576.5C 661.833,576.5 651.167,576.5 640.5,576.5C 640.5,587.167 640.5,597.833 640.5,608.5C 629.833,608.5 619.167,608.5 608.5,608.5C 608.5,619.167 608.5,629.833 608.5,640.5C 597.833,640.5 587.167,640.5 576.5,640.5C 576.5,651.167 576.5,661.833 576.5,672.5C 555.167,672.5 533.833,672.5 512.5,672.5C 512.5,683.167 512.5,693.833 512.5,704.5C 491.167,704.5 469.833,704.5 448.5,704.5C 448.5,715.167 448.5,725.833 448.5,736.5C 437.833,736.5 427.167,736.5 416.5,736.5 Z"/></g>
<g><path style="opacity:0.997" fill="#2a2a2a" d="M 223.5,63.5 C 224.494,73.6532 224.828,83.9865 224.5,94.5C 235.014,94.1724 245.347,94.5058 255.5,95.5C 244.833,95.5 234.167,95.5 223.5,95.5C 223.5,84.8333 223.5,74.1667 223.5,63.5 Z"/></g>
<g><path style="opacity:0.997" fill="#2a2a2a" d="M 191.5,63.5 C 191.5,74.1667 191.5,84.8333 191.5,95.5C 180.833,95.5 170.167,95.5 159.5,95.5C 169.653,94.5058 179.986,94.1724 190.5,94.5C 190.172,83.9865 190.506,73.6532 191.5,63.5 Z"/></g>
<g><path style="opacity:1" fill="#c9c9c9" d="M 511.5,63.5 C 522.167,63.5 532.833,63.5 543.5,63.5C 543.5,74.1667 543.5,84.8333 543.5,95.5C 554.167,95.5 564.833,95.5 575.5,95.5C 575.5,116.833 575.5,138.167 575.5,159.5C 586.167,159.5 596.833,159.5 607.5,159.5C 607.5,202.167 607.5,244.833 607.5,287.5C 586.167,287.5 564.833,287.5 543.5,287.5C 543.5,276.833 543.5,266.167 543.5,255.5C 532.833,255.5 522.167,255.5 511.5,255.5C 511.5,244.833 511.5,234.167 511.5,223.5C 500.833,223.5 490.167,223.5 479.5,223.5C 479.5,180.833 479.5,138.167 479.5,95.5C 490.167,95.5 500.833,95.5 511.5,95.5C 511.5,84.8333 511.5,74.1667 511.5,63.5 Z"/></g>
<g><path style="opacity:1" fill="#e8e8e8" d="M 512.5,64.5 C 522.5,64.5 532.5,64.5 542.5,64.5C 542.5,74.8333 542.5,85.1667 542.5,95.5C 532.5,95.5 522.5,95.5 512.5,95.5C 512.5,85.1667 512.5,74.8333 512.5,64.5 Z"/></g>
<g><path style="opacity:1" fill="#c9c9c9" d="M 191.5,63.5 C 202.167,63.5 212.833,63.5 223.5,63.5C 223.5,74.1667 223.5,84.8333 223.5,95.5C 234.167,95.5 244.833,95.5 255.5,95.5C 255.5,138.167 255.5,180.833 255.5,223.5C 244.833,223.5 234.167,223.5 223.5,223.5C 223.5,234.167 223.5,244.833 223.5,255.5C 212.833,255.5 202.167,255.5 191.5,255.5C 191.5,266.167 191.5,276.833 191.5,287.5C 170.167,287.5 148.833,287.5 127.5,287.5C 127.5,244.833 127.5,202.167 127.5,159.5C 138.167,159.5 148.833,159.5 159.5,159.5C 159.5,138.167 159.5,116.833 159.5,95.5C 170.167,95.5 180.833,95.5 191.5,95.5C 191.5,84.8333 191.5,74.1667 191.5,63.5 Z"/></g>
<g><path style="opacity:1" fill="#e8e8e8" d="M 192.5,64.5 C 202.5,64.5 212.5,64.5 222.5,64.5C 222.5,74.8333 222.5,85.1667 222.5,95.5C 212.5,95.5 202.5,95.5 192.5,95.5C 192.5,85.1667 192.5,74.8333 192.5,64.5 Z"/></g>
<g><path style="opacity:0.997" fill="#2a2a2a" d="M 511.5,63.5 C 511.5,74.1667 511.5,84.8333 511.5,95.5C 500.833,95.5 490.167,95.5 479.5,95.5C 489.653,94.5058 499.986,94.1724 510.5,94.5C 510.172,83.9865 510.506,73.6532 511.5,63.5 Z"/></g>
<g><path style="opacity:0.997" fill="#2a2a2a" d="M 543.5,63.5 C 544.494,73.6532 544.828,83.9865 544.5,94.5C 555.014,94.1724 565.347,94.5058 575.5,95.5C 564.833,95.5 554.167,95.5 543.5,95.5C 543.5,84.8333 543.5,74.1667 543.5,63.5 Z"/></g>
<g><path style="opacity:0.998" fill="#2a2a2a" d="M 159.5,95.5 C 159.5,116.833 159.5,138.167 159.5,159.5C 148.833,159.5 138.167,159.5 127.5,159.5C 137.653,158.506 147.986,158.172 158.5,158.5C 158.169,137.327 158.503,116.327 159.5,95.5 Z"/></g>
<g><path style="opacity:0.998" fill="#2a2a2a" d="M 575.5,95.5 C 576.497,116.327 576.831,137.327 576.5,158.5C 587.014,158.172 597.347,158.506 607.5,159.5C 596.833,159.5 586.167,159.5 575.5,159.5C 575.5,138.167 575.5,116.833 575.5,95.5 Z"/></g>
<g><path style="opacity:1" fill="#e8e8e8" d="M 160.5,96.5 C 170.833,96.5 181.167,96.5 191.5,96.5C 191.5,117.5 191.5,138.5 191.5,159.5C 181.167,159.5 170.833,159.5 160.5,159.5C 160.5,138.5 160.5,117.5 160.5,96.5 Z"/></g>
<g><path style="opacity:1" fill="#e8e8e8" d="M 223.5,96.5 C 233.833,96.5 244.167,96.5 254.5,96.5C 254.5,138.5 254.5,180.5 254.5,222.5C 244.167,222.5 233.833,222.5 223.5,222.5C 223.5,180.5 223.5,138.5 223.5,96.5 Z"/></g>
<g><path style="opacity:1" fill="#e8e8e8" d="M 480.5,96.5 C 490.833,96.5 501.167,96.5 511.5,96.5C 511.5,138.5 511.5,180.5 511.5,222.5C 501.167,222.5 490.833,222.5 480.5,222.5C 480.5,180.5 480.5,138.5 480.5,96.5 Z"/></g>
<g><path style="opacity:1" fill="#e8e8e8" d="M 543.5,96.5 C 553.833,96.5 564.167,96.5 574.5,96.5C 574.5,117.5 574.5,138.5 574.5,159.5C 564.167,159.5 553.833,159.5 543.5,159.5C 543.5,138.5 543.5,117.5 543.5,96.5 Z"/></g>
<g><path style="opacity:1" fill="#e8e8e8" d="M 128.5,160.5 C 138.833,160.5 149.167,160.5 159.5,160.5C 159.5,192.167 159.5,223.833 159.5,255.5C 169.833,255.5 180.167,255.5 190.5,255.5C 190.5,265.833 190.5,276.167 190.5,286.5C 169.833,286.5 149.167,286.5 128.5,286.5C 128.5,244.5 128.5,202.5 128.5,160.5 Z"/></g>
<g><path style="opacity:1" fill="#e8e8e8" d="M 575.5,160.5 C 585.833,160.5 596.167,160.5 606.5,160.5C 606.5,202.5 606.5,244.5 606.5,286.5C 585.833,286.5 565.167,286.5 544.5,286.5C 544.5,276.167 544.5,265.833 544.5,255.5C 554.833,255.5 565.167,255.5 575.5,255.5C 575.5,223.833 575.5,192.167 575.5,160.5 Z"/></g>
<g><path style="opacity:1" fill="#e8e8e8" d="M 191.5,223.5 C 201.833,223.5 212.167,223.5 222.5,223.5C 222.5,233.833 222.5,244.167 222.5,254.5C 212.167,254.5 201.833,254.5 191.5,254.5C 191.5,244.167 191.5,233.833 191.5,223.5 Z"/></g>
<g><path style="opacity:1" fill="#2a2a2a" d="M 255.5,223.5 C 245.347,224.494 235.014,224.828 224.5,224.5C 224.828,235.014 224.494,245.347 223.5,255.5C 223.5,244.833 223.5,234.167 223.5,223.5C 234.167,223.5 244.833,223.5 255.5,223.5 Z"/></g>
<g><path style="opacity:1" fill="#2a2a2a" d="M 479.5,223.5 C 490.167,223.5 500.833,223.5 511.5,223.5C 511.5,234.167 511.5,244.833 511.5,255.5C 510.506,245.347 510.172,235.014 510.5,224.5C 499.986,224.828 489.653,224.494 479.5,223.5 Z"/></g>
<g><path style="opacity:1" fill="#e8e8e8" d="M 512.5,223.5 C 522.833,223.5 533.167,223.5 543.5,223.5C 543.5,233.833 543.5,244.167 543.5,254.5C 533.167,254.5 522.833,254.5 512.5,254.5C 512.5,244.167 512.5,233.833 512.5,223.5 Z"/></g>
<g><path style="opacity:1" fill="#2a2a2a" d="M 223.5,255.5 C 213.347,256.494 203.014,256.828 192.5,256.5C 192.828,267.014 192.494,277.347 191.5,287.5C 191.5,276.833 191.5,266.167 191.5,255.5C 202.167,255.5 212.833,255.5 223.5,255.5 Z"/></g>
<g><path style="opacity:1" fill="#b1b1b1" d="M 287.5,255.5 C 298.167,255.5 308.833,255.5 319.5,255.5C 319.5,266.167 319.5,276.833 319.5,287.5C 319.167,287.5 318.833,287.5 318.5,287.5C 318.5,277.167 318.5,266.833 318.5,256.5C 308.5,256.5 298.5,256.5 288.5,256.5C 288.5,266.833 288.5,277.167 288.5,287.5C 288.167,287.5 287.833,287.5 287.5,287.5C 287.5,276.833 287.5,266.167 287.5,255.5 Z"/></g>
<g><path style="opacity:1" fill="#c9c9c9" d="M 318.5,287.5 C 308.5,287.5 298.5,287.5 288.5,287.5C 288.5,277.167 288.5,266.833 288.5,256.5C 298.5,256.5 308.5,256.5 318.5,256.5C 318.5,266.833 318.5,277.167 318.5,287.5 Z"/></g>
<g><path style="opacity:1" fill="#282828" d="M 319.5,255.5 C 320.498,286.996 320.832,318.662 320.5,350.5C 331.014,350.172 341.347,350.506 351.5,351.5C 340.833,351.5 330.167,351.5 319.5,351.5C 319.5,330.167 319.5,308.833 319.5,287.5C 319.5,276.833 319.5,266.167 319.5,255.5 Z"/></g>
<g><path style="opacity:1" fill="#282828" d="M 415.5,255.5 C 415.5,266.167 415.5,276.833 415.5,287.5C 415.5,308.833 415.5,330.167 415.5,351.5C 404.833,351.5 394.167,351.5 383.5,351.5C 393.653,350.506 403.986,350.172 414.5,350.5C 414.168,318.662 414.502,286.996 415.5,255.5 Z"/></g>
<g><path style="opacity:1" fill="#b1b1b1" d="M 415.5,255.5 C 426.167,255.5 436.833,255.5 447.5,255.5C 447.5,266.167 447.5,276.833 447.5,287.5C 447.167,287.5 446.833,287.5 446.5,287.5C 446.5,277.167 446.5,266.833 446.5,256.5C 436.5,256.5 426.5,256.5 416.5,256.5C 416.5,266.833 416.5,277.167 416.5,287.5C 416.167,287.5 415.833,287.5 415.5,287.5C 415.5,276.833 415.5,266.167 415.5,255.5 Z"/></g>
<g><path style="opacity:1" fill="#c9c9c9" d="M 446.5,287.5 C 436.5,287.5 426.5,287.5 416.5,287.5C 416.5,277.167 416.5,266.833 416.5,256.5C 426.5,256.5 436.5,256.5 446.5,256.5C 446.5,266.833 446.5,277.167 446.5,287.5 Z"/></g>
<g><path style="opacity:1" fill="#2a2a2a" d="M 511.5,255.5 C 522.167,255.5 532.833,255.5 543.5,255.5C 543.5,266.167 543.5,276.833 543.5,287.5C 542.506,277.347 542.172,267.014 542.5,256.5C 531.986,256.828 521.653,256.494 511.5,255.5 Z"/></g>
<g><path style="opacity:1" fill="#282828" d="M 287.5,255.5 C 287.5,266.167 287.5,276.833 287.5,287.5C 276.833,287.5 266.167,287.5 255.5,287.5C 265.653,286.506 275.986,286.172 286.5,286.5C 286.172,275.986 286.506,265.653 287.5,255.5 Z"/></g>
<g><path style="opacity:1" fill="#282828" d="M 447.5,255.5 C 448.494,265.653 448.828,275.986 448.5,286.5C 459.014,286.172 469.347,286.506 479.5,287.5C 468.833,287.5 458.167,287.5 447.5,287.5C 447.5,276.833 447.5,266.167 447.5,255.5 Z"/></g>
<g><path style="opacity:1" fill="#cdcdcd" d="M 255.5,287.5 C 266.167,287.5 276.833,287.5 287.5,287.5C 277.347,288.494 267.014,288.828 256.5,288.5C 256.828,299.014 256.494,309.347 255.5,319.5C 255.5,308.833 255.5,298.167 255.5,287.5 Z"/></g>
<g><path style="opacity:1" fill="#e8e8e8" d="M 287.5,287.5 C 287.833,287.5 288.167,287.5 288.5,287.5C 298.5,287.5 308.5,287.5 318.5,287.5C 318.5,308.5 318.5,329.5 318.5,350.5C 297.327,350.169 276.327,350.503 255.5,351.5C 254.503,372.327 254.169,393.327 254.5,414.5C 244.5,414.5 234.5,414.5 224.5,414.5C 224.5,383.167 224.5,351.833 224.5,320.5C 235.014,320.828 245.347,320.494 255.5,319.5C 256.494,309.347 256.828,299.014 256.5,288.5C 267.014,288.828 277.347,288.494 287.5,287.5 Z"/></g>
<g><path style="opacity:1" fill="#e8e8e8" d="M 416.5,287.5 C 426.5,287.5 436.5,287.5 446.5,287.5C 446.833,287.5 447.167,287.5 447.5,287.5C 457.653,288.494 467.986,288.828 478.5,288.5C 478.172,299.014 478.506,309.347 479.5,319.5C 489.653,320.494 499.986,320.828 510.5,320.5C 510.5,351.833 510.5,383.167 510.5,414.5C 500.5,414.5 490.5,414.5 480.5,414.5C 480.831,393.327 480.497,372.327 479.5,351.5C 458.673,350.503 437.673,350.169 416.5,350.5C 416.5,329.5 416.5,308.5 416.5,287.5 Z"/></g>
<g><path style="opacity:1" fill="#cdcdcd" d="M 447.5,287.5 C 458.167,287.5 468.833,287.5 479.5,287.5C 479.5,298.167 479.5,308.833 479.5,319.5C 478.506,309.347 478.172,299.014 478.5,288.5C 467.986,288.828 457.653,288.494 447.5,287.5 Z"/></g>
<g><path style="opacity:1" fill="#2a2a2a" d="M 255.5,287.5 C 255.5,298.167 255.5,308.833 255.5,319.5C 244.833,319.5 234.167,319.5 223.5,319.5C 233.653,318.506 243.986,318.172 254.5,318.5C 254.172,307.986 254.506,297.653 255.5,287.5 Z"/></g>
<g><path style="opacity:1" fill="#2a2a2a" d="M 479.5,287.5 C 480.494,297.653 480.828,307.986 480.5,318.5C 491.014,318.172 501.347,318.506 511.5,319.5C 500.833,319.5 490.167,319.5 479.5,319.5C 479.5,308.833 479.5,298.167 479.5,287.5 Z"/></g>
<g><path style="opacity:1" fill="#cfd0d1" d="M 223.5,319.5 C 234.167,319.5 244.833,319.5 255.5,319.5C 245.347,320.494 235.014,320.828 224.5,320.5C 224.5,351.833 224.5,383.167 224.5,414.5C 234.5,414.5 244.5,414.5 254.5,414.5C 254.169,393.327 254.503,372.327 255.5,351.5C 255.5,372.833 255.5,394.167 255.5,415.5C 244.833,415.5 234.167,415.5 223.5,415.5C 223.5,383.5 223.5,351.5 223.5,319.5 Z"/></g>
<g><path style="opacity:1" fill="#cfd0d1" d="M 479.5,319.5 C 490.167,319.5 500.833,319.5 511.5,319.5C 511.5,351.5 511.5,383.5 511.5,415.5C 500.833,415.5 490.167,415.5 479.5,415.5C 479.5,394.167 479.5,372.833 479.5,351.5C 480.497,372.327 480.831,393.327 480.5,414.5C 490.5,414.5 500.5,414.5 510.5,414.5C 510.5,383.167 510.5,351.833 510.5,320.5C 499.986,320.828 489.653,320.494 479.5,319.5 Z"/></g>
<g><path style="opacity:1" fill="#d4d6d9" d="M 318.5,287.5 C 318.833,287.5 319.167,287.5 319.5,287.5C 319.5,308.833 319.5,330.167 319.5,351.5C 298.167,351.5 276.833,351.5 255.5,351.5C 276.327,350.503 297.327,350.169 318.5,350.5C 318.5,329.5 318.5,308.5 318.5,287.5 Z"/></g>
<g><path style="opacity:1" fill="#d4d6d9" d="M 415.5,287.5 C 415.833,287.5 416.167,287.5 416.5,287.5C 416.5,308.5 416.5,329.5 416.5,350.5C 437.673,350.169 458.673,350.503 479.5,351.5C 458.167,351.5 436.833,351.5 415.5,351.5C 415.5,330.167 415.5,308.833 415.5,287.5 Z"/></g>
<g><path style="opacity:1" fill="#7187a6" d="M 255.5,351.5 C 276.833,351.5 298.167,351.5 319.5,351.5C 319.5,362.167 319.5,372.833 319.5,383.5C 319.167,383.5 318.833,383.5 318.5,383.5C 318.5,373.167 318.5,362.833 318.5,352.5C 297.833,352.5 277.167,352.5 256.5,352.5C 256.5,373.167 256.5,393.833 256.5,414.5C 266.833,414.5 277.167,414.5 287.5,414.5C 287.5,414.833 287.5,415.167 287.5,415.5C 276.833,415.5 266.167,415.5 255.5,415.5C 255.5,394.167 255.5,372.833 255.5,351.5 Z"/></g>
<g><path style="opacity:1" fill="#60799d" d="M 318.5,383.5 C 308.167,383.5 297.833,383.5 287.5,383.5C 287.5,393.833 287.5,404.167 287.5,414.5C 277.167,414.5 266.833,414.5 256.5,414.5C 256.5,393.833 256.5,373.167 256.5,352.5C 277.167,352.5 297.833,352.5 318.5,352.5C 318.5,362.833 318.5,373.167 318.5,383.5 Z"/></g>
<g><path style="opacity:1" fill="#e8e8e8" d="M 351.5,383.5 C 362.167,383.5 372.833,383.5 383.5,383.5C 384.494,373.347 384.828,363.014 384.5,352.5C 394.5,352.5 404.5,352.5 414.5,352.5C 414.169,373.673 414.503,394.673 415.5,415.5C 426.167,415.5 436.833,415.5 447.5,415.5C 458.167,415.5 468.833,415.5 479.5,415.5C 479.5,426.167 479.5,436.833 479.5,447.5C 490.167,447.5 500.833,447.5 511.5,447.5C 511.5,447.833 511.5,448.167 511.5,448.5C 511.5,458.833 511.5,469.167 511.5,479.5C 532.833,479.5 554.167,479.5 575.5,479.5C 575.5,489.833 575.5,500.167 575.5,510.5C 575.5,510.833 575.5,511.167 575.5,511.5C 575.167,511.5 574.833,511.5 574.5,511.5C 564.167,511.5 553.833,511.5 543.5,511.5C 543.5,532.5 543.5,553.5 543.5,574.5C 543.5,574.833 543.5,575.167 543.5,575.5C 543.167,575.5 542.833,575.5 542.5,575.5C 532.167,575.5 521.833,575.5 511.5,575.5C 511.5,585.833 511.5,596.167 511.5,606.5C 511.5,606.833 511.5,607.167 511.5,607.5C 511.167,607.5 510.833,607.5 510.5,607.5C 500.167,607.5 489.833,607.5 479.5,607.5C 479.5,617.833 479.5,628.167 479.5,638.5C 479.5,638.833 479.5,639.167 479.5,639.5C 479.167,639.5 478.833,639.5 478.5,639.5C 468.5,639.5 458.5,639.5 448.5,639.5C 448.5,618.5 448.5,597.5 448.5,576.5C 459.014,576.828 469.347,576.494 479.5,575.5C 479.5,564.833 479.5,554.167 479.5,543.5C 468.833,543.5 458.167,543.5 447.5,543.5C 446.506,553.653 446.172,563.986 446.5,574.5C 436.5,574.5 426.5,574.5 416.5,574.5C 416.828,563.986 416.494,553.653 415.5,543.5C 383.5,543.5 351.5,543.5 319.5,543.5C 318.506,553.653 318.172,563.986 318.5,574.5C 308.5,574.5 298.5,574.5 288.5,574.5C 288.828,563.986 288.494,553.653 287.5,543.5C 276.833,543.5 266.167,543.5 255.5,543.5C 255.5,554.167 255.5,564.833 255.5,575.5C 265.653,576.494 275.986,576.828 286.5,576.5C 286.5,597.5 286.5,618.5 286.5,639.5C 276.5,639.5 266.5,639.5 256.5,639.5C 256.167,639.5 255.833,639.5 255.5,639.5C 255.5,639.167 255.5,638.833 255.5,638.5C 255.5,628.167 255.5,617.833 255.5,607.5C 245.167,607.5 234.833,607.5 224.5,607.5C 224.167,607.5 223.833,607.5 223.5,607.5C 223.5,607.167 223.5,606.833 223.5,606.5C 223.5,596.167 223.5,585.833 223.5,575.5C 213.167,575.5 202.833,575.5 192.5,575.5C 192.167,575.5 191.833,575.5 191.5,575.5C 191.5,575.167 191.5,574.833 191.5,574.5C 191.5,553.5 191.5,532.5 191.5,511.5C 181.167,511.5 170.833,511.5 160.5,511.5C 160.167,511.5 159.833,511.5 159.5,511.5C 159.5,511.167 159.5,510.833 159.5,510.5C 159.5,500.167 159.5,489.833 159.5,479.5C 180.833,479.5 202.167,479.5 223.5,479.5C 223.5,469.167 223.5,458.833 223.5,448.5C 223.5,448.167 223.5,447.833 223.5,447.5C 234.167,447.5 244.833,447.5 255.5,447.5C 256.494,437.347 256.828,427.014 256.5,416.5C 277.673,416.831 298.673,416.497 319.5,415.5C 320.497,394.673 320.831,373.673 320.5,352.5C 330.5,352.5 340.5,352.5 350.5,352.5C 350.172,363.014 350.506,373.347 351.5,383.5 Z"/></g>
<g><path style="opacity:1" fill="#60799d" d="M 447.5,414.5 C 447.5,404.167 447.5,393.833 447.5,383.5C 437.167,383.5 426.833,383.5 416.5,383.5C 416.5,373.167 416.5,362.833 416.5,352.5C 437.167,352.5 457.833,352.5 478.5,352.5C 478.5,373.167 478.5,393.833 478.5,414.5C 468.167,414.5 457.833,414.5 447.5,414.5 Z"/></g>
<g><path style="opacity:1" fill="#7187a6" d="M 415.5,351.5 C 436.833,351.5 458.167,351.5 479.5,351.5C 479.5,372.833 479.5,394.167 479.5,415.5C 468.833,415.5 458.167,415.5 447.5,415.5C 447.5,415.167 447.5,414.833 447.5,414.5C 457.833,414.5 468.167,414.5 478.5,414.5C 478.5,393.833 478.5,373.167 478.5,352.5C 457.833,352.5 437.167,352.5 416.5,352.5C 416.5,362.833 416.5,373.167 416.5,383.5C 416.167,383.5 415.833,383.5 415.5,383.5C 415.5,372.833 415.5,362.167 415.5,351.5 Z"/></g>
<g><path style="opacity:1" fill="#2a2a2a" d="M 351.5,351.5 C 352.494,361.653 352.828,371.986 352.5,382.5C 362.5,382.5 372.5,382.5 382.5,382.5C 382.172,371.986 382.506,361.653 383.5,351.5C 383.5,362.167 383.5,372.833 383.5,383.5C 372.833,383.5 362.167,383.5 351.5,383.5C 351.5,372.833 351.5,362.167 351.5,351.5 Z"/></g>
<g><path style="opacity:1" fill="#101011" d="M 318.5,383.5 C 318.5,393.833 318.5,404.167 318.5,414.5C 308.167,414.5 297.833,414.5 287.5,414.5C 287.5,404.167 287.5,393.833 287.5,383.5C 297.833,383.5 308.167,383.5 318.5,383.5 Z"/></g>
<g><path style="opacity:1" fill="#d0d0d1" d="M 319.5,351.5 C 330.167,351.5 340.833,351.5 351.5,351.5C 351.5,362.167 351.5,372.833 351.5,383.5C 350.506,373.347 350.172,363.014 350.5,352.5C 340.5,352.5 330.5,352.5 320.5,352.5C 320.831,373.673 320.497,394.673 319.5,415.5C 319.5,404.833 319.5,394.167 319.5,383.5C 319.5,372.833 319.5,362.167 319.5,351.5 Z"/></g>
<g><path style="opacity:1" fill="#d0d0d1" d="M 383.5,351.5 C 394.167,351.5 404.833,351.5 415.5,351.5C 415.5,362.167 415.5,372.833 415.5,383.5C 415.5,394.167 415.5,404.833 415.5,415.5C 414.503,394.673 414.169,373.673 414.5,352.5C 404.5,352.5 394.5,352.5 384.5,352.5C 384.828,363.014 384.494,373.347 383.5,383.5C 383.5,372.833 383.5,362.167 383.5,351.5 Z"/></g>
<g><path style="opacity:1" fill="#101011" d="M 416.5,383.5 C 426.833,383.5 437.167,383.5 447.5,383.5C 447.5,393.833 447.5,404.167 447.5,414.5C 437.167,414.5 426.833,414.5 416.5,414.5C 416.5,404.167 416.5,393.833 416.5,383.5 Z"/></g>
<g><path style="opacity:1" fill="#2a2a2a" d="M 318.5,383.5 C 318.833,383.5 319.167,383.5 319.5,383.5C 319.5,394.167 319.5,404.833 319.5,415.5C 308.833,415.5 298.167,415.5 287.5,415.5C 287.5,415.167 287.5,414.833 287.5,414.5C 297.833,414.5 308.167,414.5 318.5,414.5C 318.5,404.167 318.5,393.833 318.5,383.5 Z"/></g>
<g><path style="opacity:1" fill="#2a2a2a" d="M 415.5,383.5 C 415.833,383.5 416.167,383.5 416.5,383.5C 416.5,393.833 416.5,404.167 416.5,414.5C 426.833,414.5 437.167,414.5 447.5,414.5C 447.5,414.833 447.5,415.167 447.5,415.5C 436.833,415.5 426.167,415.5 415.5,415.5C 415.5,404.833 415.5,394.167 415.5,383.5 Z"/></g>
<g><path style="opacity:1" fill="#d0d1d2" d="M 255.5,415.5 C 266.167,415.5 276.833,415.5 287.5,415.5C 298.167,415.5 308.833,415.5 319.5,415.5C 298.673,416.497 277.673,416.831 256.5,416.5C 256.828,427.014 256.494,437.347 255.5,447.5C 255.5,436.833 255.5,426.167 255.5,415.5 Z"/></g>
<g><path style="opacity:1" fill="#272727" d="M 223.5,415.5 C 234.167,415.5 244.833,415.5 255.5,415.5C 255.5,426.167 255.5,436.833 255.5,447.5C 244.833,447.5 234.167,447.5 223.5,447.5C 191.5,447.5 159.5,447.5 127.5,447.5C 169.663,446.501 211.997,446.168 254.5,446.5C 254.5,436.5 254.5,426.5 254.5,416.5C 243.986,416.828 233.653,416.494 223.5,415.5 Z"/></g>
<g><path style="opacity:1" fill="#272727" d="M 479.5,415.5 C 490.167,415.5 500.833,415.5 511.5,415.5C 501.347,416.494 491.014,416.828 480.5,416.5C 480.5,426.5 480.5,436.5 480.5,446.5C 523.003,446.168 565.337,446.501 607.5,447.5C 575.5,447.5 543.5,447.5 511.5,447.5C 500.833,447.5 490.167,447.5 479.5,447.5C 479.5,436.833 479.5,426.167 479.5,415.5 Z"/></g>
<g><path style="opacity:1" fill="#b1b1b1" d="M 127.5,447.5 C 159.5,447.5 191.5,447.5 223.5,447.5C 223.5,447.833 223.5,448.167 223.5,448.5C 191.833,448.5 160.167,448.5 128.5,448.5C 128.5,469.167 128.5,489.833 128.5,510.5C 138.833,510.5 149.167,510.5 159.5,510.5C 159.5,510.833 159.5,511.167 159.5,511.5C 148.833,511.5 138.167,511.5 127.5,511.5C 127.5,490.167 127.5,468.833 127.5,447.5 Z"/></g>
<g><path style="opacity:1" fill="#c9c9c9" d="M 223.5,448.5 C 223.5,458.833 223.5,469.167 223.5,479.5C 202.167,479.5 180.833,479.5 159.5,479.5C 159.5,489.833 159.5,500.167 159.5,510.5C 149.167,510.5 138.833,510.5 128.5,510.5C 128.5,489.833 128.5,469.167 128.5,448.5C 160.167,448.5 191.833,448.5 223.5,448.5 Z"/></g>
<g><path style="opacity:1" fill="#2a2a2a" d="M 319.5,447.5 C 351.5,447.5 383.5,447.5 415.5,447.5C 415.5,468.833 415.5,490.167 415.5,511.5C 383.5,511.5 351.5,511.5 319.5,511.5C 319.5,490.167 319.5,468.833 319.5,447.5 Z"/></g>
<g><path style="opacity:1" fill="#0f100f" d="M 320.5,448.5 C 351.833,448.5 383.167,448.5 414.5,448.5C 414.5,469.167 414.5,489.833 414.5,510.5C 383.167,510.5 351.833,510.5 320.5,510.5C 320.5,489.833 320.5,469.167 320.5,448.5 Z"/></g>
<g><path style="opacity:1" fill="#c9c9c9" d="M 511.5,448.5 C 543.167,448.5 574.833,448.5 606.5,448.5C 606.5,469.167 606.5,489.833 606.5,510.5C 596.167,510.5 585.833,510.5 575.5,510.5C 575.5,500.167 575.5,489.833 575.5,479.5C 554.167,479.5 532.833,479.5 511.5,479.5C 511.5,469.167 511.5,458.833 511.5,448.5 Z"/></g>
<g><path style="opacity:1" fill="#b1b1b1" d="M 511.5,448.5 C 511.5,448.167 511.5,447.833 511.5,447.5C 543.5,447.5 575.5,447.5 607.5,447.5C 607.5,468.833 607.5,490.167 607.5,511.5C 596.833,511.5 586.167,511.5 575.5,511.5C 575.5,511.167 575.5,510.833 575.5,510.5C 585.833,510.5 596.167,510.5 606.5,510.5C 606.5,489.833 606.5,469.167 606.5,448.5C 574.833,448.5 543.167,448.5 511.5,448.5 Z"/></g>
<g><path style="opacity:1" fill="#c9c9c9" d="M 160.5,511.5 C 170.833,511.5 181.167,511.5 191.5,511.5C 191.5,532.5 191.5,553.5 191.5,574.5C 181.167,574.5 170.833,574.5 160.5,574.5C 160.5,553.5 160.5,532.5 160.5,511.5 Z"/></g>
<g><path style="opacity:1" fill="#c9c9c9" d="M 574.5,511.5 C 574.5,532.5 574.5,553.5 574.5,574.5C 564.167,574.5 553.833,574.5 543.5,574.5C 543.5,553.5 543.5,532.5 543.5,511.5C 553.833,511.5 564.167,511.5 574.5,511.5 Z"/></g>
<g><path style="opacity:1" fill="#262626" d="M 127.5,511.5 C 138.167,511.5 148.833,511.5 159.5,511.5C 159.5,532.833 159.5,554.167 159.5,575.5C 158.503,554.673 158.169,533.673 158.5,512.5C 147.986,512.828 137.653,512.494 127.5,511.5 Z"/></g>
<g><path style="opacity:1" fill="#b1b1b1" d="M 159.5,511.5 C 159.833,511.5 160.167,511.5 160.5,511.5C 160.5,532.5 160.5,553.5 160.5,574.5C 170.833,574.5 181.167,574.5 191.5,574.5C 191.5,574.833 191.5,575.167 191.5,575.5C 180.833,575.5 170.167,575.5 159.5,575.5C 159.5,554.167 159.5,532.833 159.5,511.5 Z"/></g>
<g><path style="opacity:1" fill="#b1b1b1" d="M 574.5,511.5 C 574.833,511.5 575.167,511.5 575.5,511.5C 575.5,532.833 575.5,554.167 575.5,575.5C 564.833,575.5 554.167,575.5 543.5,575.5C 543.5,575.167 543.5,574.833 543.5,574.5C 553.833,574.5 564.167,574.5 574.5,574.5C 574.5,553.5 574.5,532.5 574.5,511.5 Z"/></g>
<g><path style="opacity:1" fill="#262626" d="M 575.5,511.5 C 586.167,511.5 596.833,511.5 607.5,511.5C 597.347,512.494 587.014,512.828 576.5,512.5C 576.831,533.673 576.497,554.673 575.5,575.5C 575.5,554.167 575.5,532.833 575.5,511.5 Z"/></g>
<g><path style="opacity:1" fill="#292728" d="M 319.5,543.5 C 351.5,543.5 383.5,543.5 415.5,543.5C 415.5,554.167 415.5,564.833 415.5,575.5C 383.5,575.5 351.5,575.5 319.5,575.5C 319.5,564.833 319.5,554.167 319.5,543.5 Z"/></g>
<g><path style="opacity:1" fill="#2a2a2a" d="M 287.5,543.5 C 287.5,554.167 287.5,564.833 287.5,575.5C 276.833,575.5 266.167,575.5 255.5,575.5C 255.5,564.833 255.5,554.167 255.5,543.5C 266.167,543.5 276.833,543.5 287.5,543.5 Z"/></g>
<g><path style="opacity:1" fill="#0f100f" d="M 256.5,544.5 C 266.5,544.5 276.5,544.5 286.5,544.5C 286.5,554.5 286.5,564.5 286.5,574.5C 276.5,574.5 266.5,574.5 256.5,574.5C 256.5,564.5 256.5,554.5 256.5,544.5 Z"/></g>
<g><path style="opacity:1" fill="#0f100f" d="M 320.5,544.5 C 351.833,544.5 383.167,544.5 414.5,544.5C 414.5,554.5 414.5,564.5 414.5,574.5C 383.167,574.5 351.833,574.5 320.5,574.5C 320.5,564.5 320.5,554.5 320.5,544.5 Z"/></g>
<g><path style="opacity:1" fill="#2a2a2a" d="M 447.5,543.5 C 458.167,543.5 468.833,543.5 479.5,543.5C 479.5,554.167 479.5,564.833 479.5,575.5C 468.833,575.5 458.167,575.5 447.5,575.5C 447.5,564.833 447.5,554.167 447.5,543.5 Z"/></g>
<g><path style="opacity:1" fill="#0f100f" d="M 448.5,544.5 C 458.5,544.5 468.5,544.5 478.5,544.5C 478.5,554.5 478.5,564.5 478.5,574.5C 468.5,574.5 458.5,574.5 448.5,574.5C 448.5,564.5 448.5,554.5 448.5,544.5 Z"/></g>
<g><path style="opacity:1" fill="#cdcdcd" d="M 287.5,543.5 C 288.494,553.653 288.828,563.986 288.5,574.5C 298.5,574.5 308.5,574.5 318.5,574.5C 318.172,563.986 318.506,553.653 319.5,543.5C 319.5,554.167 319.5,564.833 319.5,575.5C 308.833,575.5 298.167,575.5 287.5,575.5C 287.5,564.833 287.5,554.167 287.5,543.5 Z"/></g>
<g><path style="opacity:1" fill="#cdcdcd" d="M 415.5,543.5 C 416.494,553.653 416.828,563.986 416.5,574.5C 426.5,574.5 436.5,574.5 446.5,574.5C 446.172,563.986 446.506,553.653 447.5,543.5C 447.5,554.167 447.5,564.833 447.5,575.5C 436.833,575.5 426.167,575.5 415.5,575.5C 415.5,564.833 415.5,554.167 415.5,543.5 Z"/></g>
<g><path style="opacity:1" fill="#c9c9c9" d="M 192.5,575.5 C 202.833,575.5 213.167,575.5 223.5,575.5C 223.5,585.833 223.5,596.167 223.5,606.5C 213.167,606.5 202.833,606.5 192.5,606.5C 192.5,596.167 192.5,585.833 192.5,575.5 Z"/></g>
<g><path style="opacity:1" fill="#c9c9c9" d="M 542.5,575.5 C 542.5,585.833 542.5,596.167 542.5,606.5C 532.167,606.5 521.833,606.5 511.5,606.5C 511.5,596.167 511.5,585.833 511.5,575.5C 521.833,575.5 532.167,575.5 542.5,575.5 Z"/></g>
<g><path style="opacity:1" fill="#262626" d="M 159.5,575.5 C 170.167,575.5 180.833,575.5 191.5,575.5C 191.5,586.167 191.5,596.833 191.5,607.5C 190.506,597.347 190.172,587.014 190.5,576.5C 179.986,576.828 169.653,576.494 159.5,575.5 Z"/></g>
<g><path style="opacity:1" fill="#262626" d="M 543.5,575.5 C 554.167,575.5 564.833,575.5 575.5,575.5C 565.347,576.494 555.014,576.828 544.5,576.5C 544.828,587.014 544.494,597.347 543.5,607.5C 543.5,596.833 543.5,586.167 543.5,575.5 Z"/></g>
<g><path style="opacity:1" fill="#b1b1b1" d="M 191.5,575.5 C 191.833,575.5 192.167,575.5 192.5,575.5C 192.5,585.833 192.5,596.167 192.5,606.5C 202.833,606.5 213.167,606.5 223.5,606.5C 223.5,606.833 223.5,607.167 223.5,607.5C 212.833,607.5 202.167,607.5 191.5,607.5C 191.5,596.833 191.5,586.167 191.5,575.5 Z"/></g>
<g><path style="opacity:1" fill="#b1b1b1" d="M 542.5,575.5 C 542.833,575.5 543.167,575.5 543.5,575.5C 543.5,586.167 543.5,596.833 543.5,607.5C 532.833,607.5 522.167,607.5 511.5,607.5C 511.5,607.167 511.5,606.833 511.5,606.5C 521.833,606.5 532.167,606.5 542.5,606.5C 542.5,596.167 542.5,585.833 542.5,575.5 Z"/></g>
<g><path style="opacity:1" fill="#c9c9c9" d="M 224.5,607.5 C 234.833,607.5 245.167,607.5 255.5,607.5C 255.5,617.833 255.5,628.167 255.5,638.5C 245.167,638.5 234.833,638.5 224.5,638.5C 224.5,628.167 224.5,617.833 224.5,607.5 Z"/></g>
<g><path style="opacity:1" fill="#c9c9c9" d="M 510.5,607.5 C 510.5,617.833 510.5,628.167 510.5,638.5C 500.167,638.5 489.833,638.5 479.5,638.5C 479.5,628.167 479.5,617.833 479.5,607.5C 489.833,607.5 500.167,607.5 510.5,607.5 Z"/></g>
<g><path style="opacity:1" fill="#262626" d="M 191.5,607.5 C 202.167,607.5 212.833,607.5 223.5,607.5C 223.5,618.167 223.5,628.833 223.5,639.5C 222.506,629.347 222.172,619.014 222.5,608.5C 211.986,608.828 201.653,608.494 191.5,607.5 Z"/></g>
<g><path style="opacity:1" fill="#262626" d="M 511.5,607.5 C 522.167,607.5 532.833,607.5 543.5,607.5C 533.347,608.494 523.014,608.828 512.5,608.5C 512.828,619.014 512.494,629.347 511.5,639.5C 511.5,628.833 511.5,618.167 511.5,607.5 Z"/></g>
<g><path style="opacity:1" fill="#b1b1b1" d="M 223.5,607.5 C 223.833,607.5 224.167,607.5 224.5,607.5C 224.5,617.833 224.5,628.167 224.5,638.5C 234.833,638.5 245.167,638.5 255.5,638.5C 255.5,638.833 255.5,639.167 255.5,639.5C 244.833,639.5 234.167,639.5 223.5,639.5C 223.5,628.833 223.5,618.167 223.5,607.5 Z"/></g>
<g><path style="opacity:1" fill="#b1b1b1" d="M 510.5,607.5 C 510.833,607.5 511.167,607.5 511.5,607.5C 511.5,618.167 511.5,628.833 511.5,639.5C 500.833,639.5 490.167,639.5 479.5,639.5C 479.5,639.167 479.5,638.833 479.5,638.5C 489.833,638.5 500.167,638.5 510.5,638.5C 510.5,628.167 510.5,617.833 510.5,607.5 Z"/></g>
<g><path style="opacity:1" fill="#262626" d="M 223.5,639.5 C 234.167,639.5 244.833,639.5 255.5,639.5C 255.5,650.167 255.5,660.833 255.5,671.5C 254.506,661.347 254.172,651.014 254.5,640.5C 243.986,640.828 233.653,640.494 223.5,639.5 Z"/></g>
<g><path style="opacity:1" fill="#e8e8e8" d="M 288.5,671.5 C 288.167,671.5 287.833,671.5 287.5,671.5C 287.5,671.167 287.5,670.833 287.5,670.5C 287.5,660.5 287.5,650.5 287.5,640.5C 297.833,640.5 308.167,640.5 318.5,640.5C 318.5,650.833 318.5,661.167 318.5,671.5C 308.5,671.5 298.5,671.5 288.5,671.5 Z"/></g>
<g><path style="opacity:1" fill="#c9c9c9" d="M 255.5,575.5 C 266.167,575.5 276.833,575.5 287.5,575.5C 287.5,596.833 287.5,618.167 287.5,639.5C 298.167,639.5 308.833,639.5 319.5,639.5C 319.5,650.167 319.5,660.833 319.5,671.5C 351.5,671.5 383.5,671.5 415.5,671.5C 415.5,660.833 415.5,650.167 415.5,639.5C 426.167,639.5 436.833,639.5 447.5,639.5C 447.5,618.167 447.5,596.833 447.5,575.5C 458.167,575.5 468.833,575.5 479.5,575.5C 469.347,576.494 459.014,576.828 448.5,576.5C 448.5,597.5 448.5,618.5 448.5,639.5C 458.5,639.5 468.5,639.5 478.5,639.5C 478.5,649.833 478.5,660.167 478.5,670.5C 468.167,670.5 457.833,670.5 447.5,670.5C 447.5,660.5 447.5,650.5 447.5,640.5C 437.167,640.5 426.833,640.5 416.5,640.5C 416.5,650.833 416.5,661.167 416.5,671.5C 426.5,671.5 436.5,671.5 446.5,671.5C 446.5,681.833 446.5,692.167 446.5,702.5C 436.167,702.5 425.833,702.5 415.5,702.5C 415.5,692.5 415.5,682.5 415.5,672.5C 383.5,672.5 351.5,672.5 319.5,672.5C 319.5,682.5 319.5,692.5 319.5,702.5C 309.167,702.5 298.833,702.5 288.5,702.5C 288.5,692.167 288.5,681.833 288.5,671.5C 298.5,671.5 308.5,671.5 318.5,671.5C 318.5,661.167 318.5,650.833 318.5,640.5C 308.167,640.5 297.833,640.5 287.5,640.5C 287.5,650.5 287.5,660.5 287.5,670.5C 277.167,670.5 266.833,670.5 256.5,670.5C 256.5,660.167 256.5,649.833 256.5,639.5C 266.5,639.5 276.5,639.5 286.5,639.5C 286.5,618.5 286.5,597.5 286.5,576.5C 275.986,576.828 265.653,576.494 255.5,575.5 Z"/></g>
<g><path style="opacity:1" fill="#292728" d="M 415.5,575.5 C 426.167,575.5 436.833,575.5 447.5,575.5C 447.5,596.833 447.5,618.167 447.5,639.5C 436.833,639.5 426.167,639.5 415.5,639.5C 415.5,618.167 415.5,596.833 415.5,575.5 Z"/></g>
<g><path style="opacity:1" fill="#0f100f" d="M 416.5,576.5 C 426.5,576.5 436.5,576.5 446.5,576.5C 446.5,597.167 446.5,617.833 446.5,638.5C 436.5,638.5 426.5,638.5 416.5,638.5C 416.5,617.833 416.5,597.167 416.5,576.5 Z"/></g>
<g><path style="opacity:1" fill="#c58a9a" d="M 319.5,575.5 C 351.5,575.5 383.5,575.5 415.5,575.5C 415.5,596.833 415.5,618.167 415.5,639.5C 383.5,639.5 351.5,639.5 319.5,639.5C 319.5,618.167 319.5,596.833 319.5,575.5 Z"/></g>
<g><path style="opacity:1" fill="#de9cae" d="M 320.5,576.5 C 351.833,576.5 383.167,576.5 414.5,576.5C 414.5,597.167 414.5,617.833 414.5,638.5C 383.167,638.5 351.833,638.5 320.5,638.5C 320.5,617.833 320.5,597.167 320.5,576.5 Z"/></g>
<g><path style="opacity:1" fill="#292728" d="M 287.5,575.5 C 298.167,575.5 308.833,575.5 319.5,575.5C 319.5,596.833 319.5,618.167 319.5,639.5C 308.833,639.5 298.167,639.5 287.5,639.5C 287.5,618.167 287.5,596.833 287.5,575.5 Z"/></g>
<g><path style="opacity:1" fill="#0f100f" d="M 288.5,576.5 C 298.5,576.5 308.5,576.5 318.5,576.5C 318.5,597.167 318.5,617.833 318.5,638.5C 308.5,638.5 298.5,638.5 288.5,638.5C 288.5,617.833 288.5,597.167 288.5,576.5 Z"/></g>
<g><path style="opacity:1" fill="#e8e8e8" d="M 447.5,670.5 C 447.5,670.833 447.5,671.167 447.5,671.5C 447.167,671.5 446.833,671.5 446.5,671.5C 436.5,671.5 426.5,671.5 416.5,671.5C 416.5,661.167 416.5,650.833 416.5,640.5C 426.833,640.5 437.167,640.5 447.5,640.5C 447.5,650.5 447.5,660.5 447.5,670.5 Z"/></g>
<g><path style="opacity:1" fill="#262626" d="M 479.5,639.5 C 490.167,639.5 500.833,639.5 511.5,639.5C 501.347,640.494 491.014,640.828 480.5,640.5C 480.828,651.014 480.494,661.347 479.5,671.5C 479.5,660.833 479.5,650.167 479.5,639.5 Z"/></g>
<g><path style="opacity:1" fill="#b1b1b1" d="M 255.5,639.5 C 255.833,639.5 256.167,639.5 256.5,639.5C 256.5,649.833 256.5,660.167 256.5,670.5C 266.833,670.5 277.167,670.5 287.5,670.5C 287.5,670.833 287.5,671.167 287.5,671.5C 276.833,671.5 266.167,671.5 255.5,671.5C 255.5,660.833 255.5,650.167 255.5,639.5 Z"/></g>
<g><path style="opacity:1" fill="#292728" d="M 319.5,639.5 C 351.5,639.5 383.5,639.5 415.5,639.5C 415.5,650.167 415.5,660.833 415.5,671.5C 383.5,671.5 351.5,671.5 319.5,671.5C 319.5,660.833 319.5,650.167 319.5,639.5 Z"/></g>
<g><path style="opacity:1" fill="#0f100f" d="M 320.5,640.5 C 351.833,640.5 383.167,640.5 414.5,640.5C 414.5,650.5 414.5,660.5 414.5,670.5C 383.167,670.5 351.833,670.5 320.5,670.5C 320.5,660.5 320.5,650.5 320.5,640.5 Z"/></g>
<g><path style="opacity:1" fill="#b1b1b1" d="M 478.5,639.5 C 478.833,639.5 479.167,639.5 479.5,639.5C 479.5,650.167 479.5,660.833 479.5,671.5C 468.833,671.5 458.167,671.5 447.5,671.5C 447.5,671.167 447.5,670.833 447.5,670.5C 457.833,670.5 468.167,670.5 478.5,670.5C 478.5,660.167 478.5,649.833 478.5,639.5 Z"/></g>
<g><path style="opacity:1" fill="#262626" d="M 255.5,671.5 C 266.167,671.5 276.833,671.5 287.5,671.5C 287.5,682.167 287.5,692.833 287.5,703.5C 298.167,703.5 308.833,703.5 319.5,703.5C 319.5,714.5 319.5,725.5 319.5,736.5C 319.167,736.5 318.833,736.5 318.5,736.5C 318.5,725.833 318.5,715.167 318.5,704.5C 307.833,704.5 297.167,704.5 286.5,704.5C 286.5,693.833 286.5,683.167 286.5,672.5C 275.986,672.828 265.653,672.494 255.5,671.5 Z"/></g>
<g><path style="opacity:0.992" fill="#e8e8e8" d="M 415.5,702.5 C 415.5,702.833 415.5,703.167 415.5,703.5C 404.833,703.5 394.167,703.5 383.5,703.5C 383.5,714.5 383.5,725.5 383.5,736.5C 372.833,736.5 362.167,736.5 351.5,736.5C 351.5,725.5 351.5,714.5 351.5,703.5C 340.833,703.5 330.167,703.5 319.5,703.5C 319.5,703.167 319.5,702.833 319.5,702.5C 319.5,692.5 319.5,682.5 319.5,672.5C 351.5,672.5 383.5,672.5 415.5,672.5C 415.5,682.5 415.5,692.5 415.5,702.5 Z"/></g>
<g><path style="opacity:1" fill="#262626" d="M 447.5,671.5 C 458.167,671.5 468.833,671.5 479.5,671.5C 469.347,672.494 459.014,672.828 448.5,672.5C 448.828,683.014 448.494,693.347 447.5,703.5C 447.5,692.833 447.5,682.167 447.5,671.5 Z"/></g>
<g><path style="opacity:1" fill="#b1b1b1" d="M 287.5,671.5 C 287.833,671.5 288.167,671.5 288.5,671.5C 288.5,681.833 288.5,692.167 288.5,702.5C 298.833,702.5 309.167,702.5 319.5,702.5C 319.5,702.833 319.5,703.167 319.5,703.5C 308.833,703.5 298.167,703.5 287.5,703.5C 287.5,692.833 287.5,682.167 287.5,671.5 Z"/></g>
<g><path style="opacity:1" fill="#b2b2b2" d="M 446.5,671.5 C 446.833,671.5 447.167,671.5 447.5,671.5C 447.5,682.167 447.5,692.833 447.5,703.5C 436.833,703.5 426.167,703.5 415.5,703.5C 415.5,703.167 415.5,702.833 415.5,702.5C 425.833,702.5 436.167,702.5 446.5,702.5C 446.5,692.167 446.5,681.833 446.5,671.5 Z"/></g>
<g><path style="opacity:0.97" fill="#c8c8c8" d="M 319.5,703.5 C 330.167,703.5 340.833,703.5 351.5,703.5C 351.5,714.5 351.5,725.5 351.5,736.5C 340.833,736.5 330.167,736.5 319.5,736.5C 319.5,725.5 319.5,714.5 319.5,703.5 Z"/></g>
<g><path style="opacity:0.97" fill="#c8c8c8" d="M 415.5,703.5 C 415.5,714.5 415.5,725.5 415.5,736.5C 404.833,736.5 394.167,736.5 383.5,736.5C 383.5,725.5 383.5,714.5 383.5,703.5C 394.167,703.5 404.833,703.5 415.5,703.5 Z"/></g>
<g><path style="opacity:0.939" fill="#0f100f" d="M 286.5,704.5 C 297.167,704.5 307.833,704.5 318.5,704.5C 318.5,715.167 318.5,725.833 318.5,736.5C 307.833,736.5 297.167,736.5 286.5,736.5C 286.5,725.833 286.5,715.167 286.5,704.5 Z"/></g>
<g><path style="opacity:0.969" fill="#262626" d="M 415.5,703.5 C 426.167,703.5 436.833,703.5 447.5,703.5C 437.347,704.494 427.014,704.828 416.5,704.5C 416.5,715.167 416.5,725.833 416.5,736.5C 416.167,736.5 415.833,736.5 415.5,736.5C 415.5,725.5 415.5,714.5 415.5,703.5 Z"/></g>
</svg>
