<svg xmlns="http://www.w3.org/2000/svg" xmlns:xlink="http://www.w3.org/1999/xlink" viewBox="0 0 262.27 262.27"><defs><style>.cls-1{fill:url(#linear-gradient);}.cls-2{fill:#fff;}</style><linearGradient id="linear-gradient" x1="0.01" y1="129.34" x2="262.26" y2="132.93" gradientTransform="translate(131.14 -54.32) rotate(45)" gradientUnits="userSpaceOnUse"><stop offset="0" stop-color="#cd9726"/><stop offset="0.34" stop-color="#e5ad32"/><stop offset="0.58" stop-color="#f2b939"/><stop offset="0.94" stop-color="#ffda23"/></linearGradient></defs><g id="Layer_2" data-name="Layer 2"><g id="Layer_1-2" data-name="Layer 1"><circle class="cls-1" cx="131.14" cy="131.14" r="131.11" transform="translate(-54.32 131.14) rotate(-45)"/><path class="cls-2" d="M197.19,131.44a178.62,178.62,0,0,0,18.72-24.68c12.68-20.53,15.35-37.43,7.52-47.58-8.66-11.23-28.53-12.06-55-2.46C160.66,36.08,147.76,24.8,131,24.8c-13.59,0-25.62,12.87-34,33.69-3.82-1.5-7.57-2.84-11.23-4-23.07-7.07-40.1-5.37-47.93,4.78s-5.18,27.05,7.49,47.59a179.17,179.17,0,0,0,18.48,24.45C39.44,159.81,30,186.06,40.79,200c4.66,6,12.56,9.09,23.07,9.09,7.15,0,15.51-1.42,24.86-4.27q4.11-1.26,8.37-2.84c8.34,20.69,20.33,33.47,33.87,33.47,13.23,0,25-8.52,33.16-24a83.06,83.06,0,0,0,3.61-7.94c1.58.54,3.16,1.07,4.72,1.54,9.37,2.87,17.74,4.29,24.9,4.29,10.48,0,18.38-3.05,23-9.07,7.83-10.15,5.17-27-7.5-47.59A171.61,171.61,0,0,0,197.19,131.44ZM131,32.37c21,0,34.76,23.35,37.74,64a3.79,3.79,0,0,0,1.46,2.74,3.79,3.79,0,0,0,5.17-.52,3.77,3.77,0,0,0,.92-2.76,154.18,154.18,0,0,0-5.58-32.51c23.15-8.45,40.61-8.48,47.22.09C226,74,217,98.6,192.57,126.19A278.67,278.67,0,0,0,157,93.66C139.44,80.09,121.14,69,104,61.4,111,43.57,120.55,32.37,131,32.37Zm-37.55,78A188.25,188.25,0,0,1,101.59,68c16.52,7.36,34.15,18.07,51.15,31.2a270.55,270.55,0,0,1,35.12,32.13q-5.3,5.61-11.4,11.31a11.58,11.58,0,0,0-11.23-8H132a3.78,3.78,0,0,0,0,7.56h33.24c2.22,0,4.1,1.54,4.1,3.43,0,1.16,0,2.3,0,3.44-4.27,3.71-8.8,7.43-13.58,11.11a289.59,289.59,0,0,1-25.3,17.49,289.09,289.09,0,0,1-24.94-17.3c-4.21-3.25-8.2-6.51-12-9.78-.58-6.63-.89-13.48-.89-20.48,0-6.34.25-12.56.73-18.6m75.66,47c-.78,13.54-2.81,25.6-6,35.78a205.72,205.72,0,0,1-25.79-12.62c7.65-4.82,15.3-10.16,22.82-16Q164.6,162.2,169,158.56Zm-45.3,23.14a208.58,208.58,0,0,1-22,11,177.21,177.21,0,0,1-7.14-32c2.17,1.78,4.37,3.55,6.62,5.28h0C108.61,171.66,116.15,176.94,123.67,181.7ZM85.36,143.39q-6.52-6.06-12.14-12c3.74-4.15,7.77-8.29,12-12.39-.16,3.66-.25,7.39-.25,11.17Q85,136.88,85.36,143.39Zm-42-79.79c5.84-7.57,20.55-8.43,40.35-2.37,3.53,1.08,7.16,2.37,10.85,3.83a189.29,189.29,0,0,0-8.66,43.7c-6.38,5.8-12.22,11.61-17.47,17.36C44.18,98.6,35.26,74.11,43.38,63.6Zm2.95,132.14C41.12,189,42.79,176.88,51,161.67a150.91,150.91,0,0,1,17.57-25.06C74,142.3,79.85,148,86.1,153.47a186.56,186.56,0,0,0,8.57,42C70.86,204.29,52.84,204.18,46.33,195.74Zm111.09,12.2c-6.77,12.87-16.17,20-26.46,20s-19.89-11.06-26.87-28.7a222.42,222.42,0,0,0,26.33-13.38,218.39,218.39,0,0,0,30.22,15.07A75.29,75.29,0,0,1,157.42,207.94ZM214.84,196c-6.18,8-22.75,8.49-44.78,1,4-12.66,6.31-27.93,6.75-45.19,5.57-5,10.81-10.07,15.66-15.19C214.7,162.84,222.65,185.9,214.84,196Z"/></g></g></svg>