<?xml version="1.0" encoding="UTF-8"?>
<svg id="Layer_2" data-name="Layer 2" xmlns="http://www.w3.org/2000/svg" viewBox="0 0 144 144">
  <defs>
    <style>
      .cls-1 {
        fill: #a1f9e0;
      }
    </style>
  </defs>
  <g id="Layer_1-2" data-name="Layer 1">
    <g>
      <rect x="0" y="0" width="144" height="144" rx="72" ry="72"/>
      <path class="cls-1" d="M72,131.58c-32.94,0-59.58-26.64-59.58-59.58S39.06,12.42,72,12.42s59.58,26.64,59.58,59.58-26.64,59.58-59.58,59.58Zm0-107.28c-26.28,0-47.7,21.42-47.7,47.7s21.42,47.7,47.7,47.7,47.7-21.42,47.7-47.7-21.42-47.7-47.7-47.7Zm0,62.46c-8.82,0-14.94-5.76-14.94-14.94s7.38-14.76,14.94-14.76,14.76,6.12,14.76,14.76c0,7.92-5.94,14.94-14.76,14.94Z"/>
      <rect x="0" y="0" width="144" height="144" rx="72" ry="72"/>
      <path class="cls-1" d="M72,131.58c-32.94,0-59.58-26.64-59.58-59.58S39.06,12.42,72,12.42s59.58,26.64,59.58,59.58-26.64,59.58-59.58,59.58Zm0-107.28c-26.28,0-47.7,21.42-47.7,47.7s21.42,47.7,47.7,47.7,47.7-21.42,47.7-47.7-21.42-47.7-47.7-47.7Zm0,62.46c-8.82,0-14.94-5.76-14.94-14.94s7.38-14.76,14.94-14.76,14.76,6.12,14.76,14.76c0,7.92-5.94,14.94-14.76,14.94Z"/>
    </g>
  </g>
</svg>